<svg width="36" height="37" viewBox="0 0 36 37" fill="none" xmlns="http://www.w3.org/2000/svg">
<g clip-path="url(#clip0)" filter="url(#filter0_d)">
<path d="M33.9233 5.62549H19.2871C18.7101 5.62549 18.2417 6.12949 18.2417 6.75049V29.2505C18.2417 29.8715 18.7101 30.3755 19.2871 30.3755H33.9233C34.5004 30.3755 34.9687 29.8715 34.9687 29.2505V6.75049C34.9687 6.12949 34.5004 5.62549 33.9233 5.62549Z" fill="#ECEFF1"/>
<path d="M29.7415 25.8755H19.2871C18.7101 25.8755 18.2417 25.3715 18.2417 24.7505C18.2417 24.1295 18.7101 23.6255 19.2871 23.6255H29.7415C30.3186 23.6255 30.787 24.1295 30.787 24.7505C30.787 25.3715 30.3186 25.8755 29.7415 25.8755Z" fill="#F57C00"/>
<path d="M24.5143 10.1255C21.6268 10.1255 19.2871 12.6432 19.2871 15.7505C19.2871 18.8577 21.6268 21.3755 24.5143 21.3755C27.4018 21.3755 29.7415 18.8577 29.7415 15.7505H24.5143V10.1255Z" fill="#F57C00"/>
<path d="M26.605 7.87549V13.5005H31.8322C31.8322 10.3932 29.4925 7.87549 26.605 7.87549Z" fill="#F57C00"/>
<path d="M19.9541 1.38478C19.7158 1.17103 19.3959 1.07878 19.0948 1.14628L2.36773 4.52128C1.87219 4.62028 1.51465 5.08378 1.51465 5.62603V30.376C1.51465 30.916 1.87219 31.3818 2.36773 31.4808L19.0948 34.8558C19.1575 34.8693 19.2223 34.876 19.2871 34.876C19.5297 34.876 19.7659 34.786 19.9541 34.6173C20.1946 34.4035 20.3326 34.084 20.3326 33.751V2.25103C20.3326 1.91578 20.1946 1.59853 19.9541 1.38478Z" fill="#EF6C00"/>
<path d="M8.83255 25.8755C8.25547 25.8755 7.78711 25.3715 7.78711 24.7505V13.5005C7.78711 12.8795 8.25547 12.3755 8.83255 12.3755H11.9689C14.2751 12.3755 16.1506 14.3937 16.1506 16.8755C16.1506 19.3572 14.2751 21.3755 11.9689 21.3755H9.87799V24.7505C9.87799 25.3715 9.40963 25.8755 8.83255 25.8755ZM9.87799 19.1255H11.9689C13.1209 19.1255 14.0598 18.1152 14.0598 16.8755C14.0598 15.6357 13.1209 14.6255 11.9689 14.6255H9.87799V19.1255Z" fill="#FAFAFA"/>
</g>
<defs>
<filter id="filter0_d" x="0.514648" y="0" width="35.4541" height="38" filterUnits="userSpaceOnUse" color-interpolation-filters="sRGB">
<feFlood flood-opacity="0" result="BackgroundImageFix"/>
<feColorMatrix in="SourceAlpha" type="matrix" values="0 0 0 0 0 0 0 0 0 0 0 0 0 0 0 0 0 0 127 0"/>
<feOffset dy="1"/>
<feGaussianBlur stdDeviation="0.5"/>
<feColorMatrix type="matrix" values="0 0 0 0 0 0 0 0 0 0 0 0 0 0 0 0 0 0 0.25 0"/>
<feBlend mode="normal" in2="BackgroundImageFix" result="effect1_dropShadow"/>
<feBlend mode="normal" in="SourceGraphic" in2="effect1_dropShadow" result="shape"/>
</filter>
<clipPath id="clip0">
<rect width="33.4541" height="36" fill="white" transform="translate(1.51465)"/>
</clipPath>
</defs>
</svg>
