<svg width="15" height="15" viewBox="0 0 15 15" fill="none" xmlns="http://www.w3.org/2000/svg">
<g clip-path="url(#clip0)">
<path d="M13.5938 0.125927L0.468823 7.69624C-0.205005 8.08589 -0.137622 9.07905 0.580151 9.37495L4.68757 11.0742V14.0625C4.68757 14.9472 5.795 15.331 6.34871 14.6572L8.12703 12.4951L11.8302 14.0244C12.3897 14.2558 13.0225 13.9013 13.1134 13.3007L14.9884 1.081C15.1085 0.298778 14.2677 -0.263722 13.5938 0.125927ZM5.62507 14.0625V11.4609L7.22175 12.1201L5.62507 14.0625ZM12.1876 13.1572L6.14656 10.6611L11.9913 3.75288C12.1319 3.58882 11.9063 3.36616 11.7423 3.50679L4.26277 9.88179L0.937573 8.51069L14.0626 0.93745L12.1876 13.1572Z" fill="white"/>
</g>
<defs>
<clipPath id="clip0">
<rect width="15" height="15" fill="white"/>
</clipPath>
</defs>
</svg>
