<svg width="129" height="131" viewBox="0 0 129 131" fill="none" xmlns="http://www.w3.org/2000/svg">
<g clip-path="url(#clip0)">
<path d="M24.333 38.6658C10.8994 38.6658 0 27.7705 0 14.3314C0 0.892334 10.8994 -10.0015 24.333 -10.0015C37.7707 -10.0015 48.6659 0.893726 48.6659 14.3314C48.6659 27.7691 59.5626 38.6658 73.0003 38.6658C86.438 38.6658 97.3332 27.7705 97.3332 14.3328C97.3332 0.895119 108.23 -10.0015 121.668 -10.0015C135.105 -10.0015 146.001 0.893726 146.001 14.3314C146.001 27.7691 135.105 38.6644 121.668 38.6644C81.3461 38.6644 48.6673 71.3571 48.6673 111.663C48.6673 125.094 37.7721 135.996 24.3344 135.996C10.8966 135.996 0 125.104 0 111.666C0 98.2284 10.8953 87.3317 24.333 87.3317C37.7707 87.3317 48.6631 76.4365 48.6631 62.9987C48.6631 49.561 37.7721 38.6658 24.333 38.6658Z" fill="#F9F9F9"/>
<path d="M66.917 96.456C66.917 74.6057 84.6167 56.9143 106.46 56.9143C128.304 56.9157 146.001 74.6057 146.001 96.456C146.001 118.297 128.304 135.999 106.457 135.999C84.614 135.999 66.917 118.297 66.917 96.456Z" fill="#F9F9F9"/>
</g>
<defs>
<clipPath id="clip0">
<rect width="146" height="146" fill="white" transform="translate(0 -10.0015)"/>
</clipPath>
</defs>
</svg>
