<svg width="40" height="40" viewBox="0 0 40 40" fill="none" xmlns="http://www.w3.org/2000/svg">
<g clip-path="url(#clip0_5303_8054)">
<path d="M26.5912 12.8229C33.8949 12.7113 39.8562 18.4598 39.9976 25.763C40.0184 26.8353 39.9112 27.879 39.6904 28.88C39.3165 30.5751 39.0942 32.3 39.0942 34.0359V37.3912C39.0942 37.9053 38.6775 38.322 38.1634 38.322H34.8081C33.0723 38.322 31.3473 38.5442 29.6523 38.9181C28.6513 39.1389 27.6076 39.2461 26.5353 39.2253C19.2322 39.084 13.4837 33.1229 13.5951 25.8193C13.7038 18.6905 19.4624 12.9318 26.5912 12.8229Z" fill="url(#paint0_linear_5303_8054)"/>
<path d="M26.5912 12.8229C33.8949 12.7113 39.8562 18.4598 39.9976 25.763C40.0184 26.8353 39.9112 27.879 39.6904 28.88C39.3165 30.5751 39.0942 32.3 39.0942 34.0359V37.3912C39.0942 37.9053 38.6775 38.322 38.1634 38.322H34.8081C33.0723 38.322 31.3473 38.5442 29.6523 38.9181C28.6513 39.1389 27.6076 39.2461 26.5353 39.2253C19.2322 39.084 13.4837 33.1229 13.5951 25.8193C13.7038 18.6905 19.4624 12.9318 26.5912 12.8229Z" fill="url(#paint1_linear_5303_8054)"/>
<path d="M16.3358 0.773919C7.43782 0.637981 0.175418 7.64117 0.00307494 16.5385C-0.0221594 17.8447 0.108387 19.1163 0.377449 20.3358C0.832917 22.4008 1.1037 24.5023 1.1037 26.6171V30.7047C1.1037 31.331 1.61135 31.8387 2.23768 31.8387H6.32533C8.44001 31.8387 10.5415 32.1095 12.6066 32.565C13.8261 32.8339 15.0976 32.9646 16.4038 32.9392C25.301 32.767 32.3042 25.5048 32.1685 16.607C32.036 7.92211 25.0206 0.906496 16.3358 0.773919Z" fill="url(#paint2_linear_5303_8054)"/>
<path d="M10.3276 15.995C9.87326 15.5122 9.23014 15.209 8.51467 15.209C7.13866 15.209 6.02319 16.3245 6.02319 17.7005C6.02319 18.4158 6.32632 19.059 6.80921 19.5134L12.1837 24.8879C12.6382 25.3707 13.2813 25.674 13.9967 25.674C15.3727 25.674 16.4882 24.5585 16.4882 23.1825C16.4882 22.4671 16.185 21.824 15.7022 21.3695L10.3276 15.995Z" fill="url(#paint3_linear_5303_8054)"/>
<path d="M8.51443 20.192C9.89043 20.192 11.0059 19.0765 11.0059 17.7005C11.0059 16.3245 9.89043 15.209 8.51443 15.209C7.13842 15.209 6.02295 16.3245 6.02295 17.7005C6.02295 19.0765 7.13842 20.192 8.51443 20.192Z" fill="white"/>
<path d="M17.3735 15.995C16.9192 15.5122 16.276 15.209 15.5606 15.209C14.1846 15.209 13.0691 16.3245 13.0691 17.7005C13.0691 18.4158 13.3722 19.059 13.8551 19.5134L19.2296 24.8879C19.6841 25.3707 20.3272 25.674 21.0426 25.674C22.4186 25.674 23.5341 24.5585 23.5341 23.1825C23.5341 22.4671 23.2309 21.824 22.748 21.3695L17.3735 15.995Z" fill="url(#paint4_linear_5303_8054)"/>
<path d="M15.5608 20.192C16.9368 20.192 18.0523 19.0765 18.0523 17.7005C18.0523 16.3245 16.9368 15.209 15.5608 15.209C14.1848 15.209 13.0693 16.3245 13.0693 17.7005C13.0693 19.0765 14.1848 20.192 15.5608 20.192Z" fill="white"/>
<path d="M24.4197 15.995C23.9653 15.5122 23.3222 15.209 22.6067 15.209C21.2307 15.209 20.1152 16.3245 20.1152 17.7005C20.1152 18.4158 20.4184 19.059 20.9012 19.5134L26.2758 24.8879C26.7302 25.3707 27.3733 25.674 28.0887 25.674C29.4647 25.674 30.5802 24.5585 30.5802 23.1825C30.5802 22.4671 30.277 21.824 29.7942 21.3695L24.4197 15.995Z" fill="url(#paint5_linear_5303_8054)"/>
<path d="M22.607 20.192C23.983 20.192 25.0984 19.0765 25.0984 17.7005C25.0984 16.3245 23.983 15.209 22.607 15.209C21.231 15.209 20.1155 16.3245 20.1155 17.7005C20.1155 19.0765 21.231 20.192 22.607 20.192Z" fill="white"/>
</g>
<defs>
<linearGradient id="paint0_linear_5303_8054" x1="24.1315" y1="23.3602" x2="43.5162" y2="42.7448" gradientUnits="userSpaceOnUse">
<stop stop-color="#A7F3CE"/>
<stop offset="1" stop-color="#61DB99"/>
</linearGradient>
<linearGradient id="paint1_linear_5303_8054" x1="30.4771" y1="29.7053" x2="22.2435" y2="21.4726" gradientUnits="userSpaceOnUse">
<stop stop-color="#61DB99" stop-opacity="0"/>
<stop offset="1" stop-color="#009E74"/>
</linearGradient>
<linearGradient id="paint2_linear_5303_8054" x1="10.2085" y1="14.2567" x2="30.6747" y2="34.7229" gradientUnits="userSpaceOnUse">
<stop stop-color="#62E1FB"/>
<stop offset="1" stop-color="#00A2F3"/>
</linearGradient>
<linearGradient id="paint3_linear_5303_8054" x1="14.057" y1="23.2433" x2="3.28126" y2="12.4678" gradientUnits="userSpaceOnUse">
<stop stop-color="#00A2F3" stop-opacity="0"/>
<stop offset="1" stop-color="#0075CD"/>
</linearGradient>
<linearGradient id="paint4_linear_5303_8054" x1="21.1024" y1="23.243" x2="10.327" y2="12.4676" gradientUnits="userSpaceOnUse">
<stop stop-color="#00A2F3" stop-opacity="0"/>
<stop offset="1" stop-color="#0075CD"/>
</linearGradient>
<linearGradient id="paint5_linear_5303_8054" x1="28.1485" y1="23.2431" x2="17.3731" y2="12.4677" gradientUnits="userSpaceOnUse">
<stop stop-color="#00A2F3" stop-opacity="0"/>
<stop offset="1" stop-color="#0075CD"/>
</linearGradient>
<clipPath id="clip0_5303_8054">
<rect width="40" height="40" fill="white"/>
</clipPath>
</defs>
</svg>
