<svg width="36" height="37" viewBox="0 0 36 37" fill="none" xmlns="http://www.w3.org/2000/svg">
<g clip-path="url(#clip0)" filter="url(#filter0_d)">
<path d="M33.4087 30.3755H18.7725C18.1954 30.3755 17.7271 29.8737 17.7271 29.2505C17.7271 28.6272 17.7271 7.37149 17.7271 6.75049C17.7271 6.12949 18.1954 5.62549 18.7725 5.62549H33.4087C33.9857 5.62549 34.4541 6.12949 34.4541 6.75049V29.2505C34.4541 29.8737 33.9857 30.3755 33.4087 30.3755Z" fill="#ECEFF1"/>
<path d="M29.2269 12.3755H18.7725C18.1954 12.3755 17.7271 11.8737 17.7271 11.2505C17.7271 10.6272 18.1954 10.1255 18.7725 10.1255H29.2269C29.804 10.1255 30.2723 10.6295 30.2723 11.2505C30.2723 11.8715 29.804 12.3755 29.2269 12.3755Z" fill="#1976D2"/>
<path d="M29.2269 16.8755H18.7725C18.1954 16.8755 17.7271 16.3737 17.7271 15.7505C17.7271 15.1272 18.1954 14.6255 18.7725 14.6255H29.2269C29.804 14.6255 30.2723 15.1295 30.2723 15.7505C30.2723 16.3715 29.804 16.8755 29.2269 16.8755Z" fill="#1976D2"/>
<path d="M29.2269 21.3755H18.7725C18.1954 21.3755 17.7271 20.8737 17.7271 20.2505C17.7271 19.6272 18.1954 19.1255 18.7725 19.1255H29.2269C29.804 19.1255 30.2723 19.6295 30.2723 20.2505C30.2723 20.8715 29.804 21.3755 29.2269 21.3755Z" fill="#1976D2"/>
<path d="M29.2269 25.8755H18.7725C18.1954 25.8755 17.7271 25.3737 17.7271 24.7505C17.7271 24.1272 18.1954 23.6255 18.7725 23.6255H29.2269C29.804 23.6255 30.2723 24.1295 30.2723 24.7505C30.2723 25.3715 29.804 25.8755 29.2269 25.8755Z" fill="#1976D2"/>
<path d="M19.4395 1.38611C19.2011 1.17011 18.8812 1.08011 18.5801 1.14536L1.85308 4.52036C1.35963 4.61936 1 5.08511 1 5.62511V30.3751C1 30.9151 1.35754 31.3809 1.85308 31.4799L18.5801 34.8549C18.6449 34.8684 18.7077 34.8751 18.7725 34.8751C19.015 34.8751 19.2513 34.7851 19.4395 34.6164C19.6799 34.4026 19.8179 34.0854 19.8179 33.7501V2.25011C19.8179 1.91486 19.6799 1.59986 19.4395 1.38611Z" fill="#1565C0"/>
<path d="M14.5845 23.7512C14.5301 24.2664 14.1538 24.6782 13.675 24.7412C13.631 24.7479 13.5892 24.7502 13.5453 24.7502C13.1146 24.7502 12.7215 24.4622 12.5668 24.0212L10.409 17.8292L8.25121 24.0212C8.08394 24.5027 7.64486 24.7974 7.15977 24.7434C6.68514 24.6894 6.3046 24.2934 6.23769 23.7827L5.19225 15.9077C5.11071 15.2957 5.50798 14.7242 6.07879 14.6364C6.65169 14.5464 7.18068 14.9762 7.26222 15.5904L7.72849 19.1094L9.42838 14.2292C9.73365 13.3517 11.0802 13.3517 11.3875 14.2292L12.9891 18.8237L13.5516 13.3742C13.6164 12.7577 14.1475 12.3144 14.7058 12.3797C15.2808 12.4517 15.6927 13.0074 15.6299 13.6239L14.5845 23.7512Z" fill="#FAFAFA"/>
</g>
<defs>
<filter id="filter0_d" x="0" y="0" width="35.4541" height="38" filterUnits="userSpaceOnUse" color-interpolation-filters="sRGB">
<feFlood flood-opacity="0" result="BackgroundImageFix"/>
<feColorMatrix in="SourceAlpha" type="matrix" values="0 0 0 0 0 0 0 0 0 0 0 0 0 0 0 0 0 0 127 0"/>
<feOffset dy="1"/>
<feGaussianBlur stdDeviation="0.5"/>
<feColorMatrix type="matrix" values="0 0 0 0 0 0 0 0 0 0 0 0 0 0 0 0 0 0 0.25 0"/>
<feBlend mode="normal" in2="BackgroundImageFix" result="effect1_dropShadow"/>
<feBlend mode="normal" in="SourceGraphic" in2="effect1_dropShadow" result="shape"/>
</filter>
<clipPath id="clip0">
<rect width="33.4541" height="36" fill="white" transform="translate(1)"/>
</clipPath>
</defs>
</svg>
