<svg width="36" height="37" viewBox="0 0 36 37" fill="none" xmlns="http://www.w3.org/2000/svg">
<g clip-path="url(#clip0)" filter="url(#filter0_d)">
<path d="M33.9233 30.3755H19.2871C18.7101 30.3755 18.2417 29.8715 18.2417 29.2505C18.2417 28.6295 18.2417 7.37149 18.2417 6.75049C18.2417 6.12949 18.7101 5.62549 19.2871 5.62549H33.9233C34.5004 5.62549 34.9687 6.12949 34.9687 6.75049V29.2505C34.9687 29.8715 34.5004 30.3755 33.9233 30.3755Z" fill="#ECEFF1"/>
<path d="M23.4689 12.3755H19.2871C18.7101 12.3755 18.2417 11.8715 18.2417 11.2505C18.2417 10.6295 18.7101 10.1255 19.2871 10.1255H23.4689C24.046 10.1255 24.5143 10.6295 24.5143 11.2505C24.5143 11.8715 24.046 12.3755 23.4689 12.3755Z" fill="#388E3C"/>
<path d="M23.4689 16.8755H19.2871C18.7101 16.8755 18.2417 16.3715 18.2417 15.7505C18.2417 15.1295 18.7101 14.6255 19.2871 14.6255H23.4689C24.046 14.6255 24.5143 15.1295 24.5143 15.7505C24.5143 16.3715 24.046 16.8755 23.4689 16.8755Z" fill="#388E3C"/>
<path d="M23.4689 21.3755H19.2871C18.7101 21.3755 18.2417 20.8715 18.2417 20.2505C18.2417 19.6295 18.7101 19.1255 19.2871 19.1255H23.4689C24.046 19.1255 24.5143 19.6295 24.5143 20.2505C24.5143 20.8715 24.046 21.3755 23.4689 21.3755Z" fill="#388E3C"/>
<path d="M23.4689 25.8755H19.2871C18.7101 25.8755 18.2417 25.3715 18.2417 24.7505C18.2417 24.1295 18.7101 23.6255 19.2871 23.6255H23.4689C24.046 23.6255 24.5143 24.1295 24.5143 24.7505C24.5143 25.3715 24.046 25.8755 23.4689 25.8755Z" fill="#388E3C"/>
<path d="M29.7413 12.3755H27.6504C27.0733 12.3755 26.605 11.8715 26.605 11.2505C26.605 10.6295 27.0733 10.1255 27.6504 10.1255H29.7413C30.3184 10.1255 30.7867 10.6295 30.7867 11.2505C30.7867 11.8715 30.3184 12.3755 29.7413 12.3755Z" fill="#388E3C"/>
<path d="M29.7413 16.8755H27.6504C27.0733 16.8755 26.605 16.3715 26.605 15.7505C26.605 15.1295 27.0733 14.6255 27.6504 14.6255H29.7413C30.3184 14.6255 30.7867 15.1295 30.7867 15.7505C30.7867 16.3715 30.3184 16.8755 29.7413 16.8755Z" fill="#388E3C"/>
<path d="M29.7413 21.3755H27.6504C27.0733 21.3755 26.605 20.8715 26.605 20.2505C26.605 19.6295 27.0733 19.1255 27.6504 19.1255H29.7413C30.3184 19.1255 30.7867 19.6295 30.7867 20.2505C30.7867 20.8715 30.3184 21.3755 29.7413 21.3755Z" fill="#388E3C"/>
<path d="M29.7413 25.8755H27.6504C27.0733 25.8755 26.605 25.3715 26.605 24.7505C26.605 24.1295 27.0733 23.6255 27.6504 23.6255H29.7413C30.3184 23.6255 30.7867 24.1295 30.7867 24.7505C30.7867 25.3715 30.3184 25.8755 29.7413 25.8755Z" fill="#388E3C"/>
<path d="M19.9541 1.38478C19.7158 1.17103 19.3959 1.07878 19.0948 1.14628L2.36773 4.52128C1.87219 4.62028 1.51465 5.08378 1.51465 5.62603V30.376C1.51465 30.916 1.87219 31.3818 2.36773 31.4808L19.0948 34.8558C19.1575 34.8693 19.2223 34.876 19.2871 34.876C19.5297 34.876 19.7659 34.786 19.9541 34.6173C20.1946 34.4035 20.3326 34.084 20.3326 33.751V2.25103C20.3326 1.91578 20.1946 1.59853 19.9541 1.38478Z" fill="#2E7D32"/>
<path d="M15.8915 21.7606L12.5858 17.6949L15.9291 13.0689C16.2846 12.5784 16.2009 11.8719 15.7472 11.4894C15.2935 11.1069 14.637 11.1969 14.2794 11.6851L11.1828 15.9691L8.57341 12.7606C8.19078 12.2881 7.53006 12.2454 7.09934 12.6549C6.66444 13.0644 6.62053 13.7754 7.00107 14.2411L9.87603 17.7781L6.96134 21.8101C6.60589 22.3006 6.68953 23.0071 7.14325 23.3896C7.33561 23.5494 7.56351 23.6259 7.78724 23.6259C8.09878 23.6259 8.40614 23.4774 8.61314 23.1916L11.279 19.5016L14.3191 23.2389C14.5261 23.4954 14.8147 23.6259 15.1053 23.6259C15.35 23.6259 15.5946 23.5336 15.7932 23.3469C16.2281 22.9374 16.272 22.2264 15.8915 21.7606Z" fill="#FAFAFA"/>
</g>
<defs>
<filter id="filter0_d" x="0.514648" y="0" width="35.4541" height="38" filterUnits="userSpaceOnUse" color-interpolation-filters="sRGB">
<feFlood flood-opacity="0" result="BackgroundImageFix"/>
<feColorMatrix in="SourceAlpha" type="matrix" values="0 0 0 0 0 0 0 0 0 0 0 0 0 0 0 0 0 0 127 0"/>
<feOffset dy="1"/>
<feGaussianBlur stdDeviation="0.5"/>
<feColorMatrix type="matrix" values="0 0 0 0 0 0 0 0 0 0 0 0 0 0 0 0 0 0 0.25 0"/>
<feBlend mode="normal" in2="BackgroundImageFix" result="effect1_dropShadow"/>
<feBlend mode="normal" in="SourceGraphic" in2="effect1_dropShadow" result="shape"/>
</filter>
<clipPath id="clip0">
<rect width="33.4541" height="36" fill="white" transform="translate(1.51465)"/>
</clipPath>
</defs>
</svg>
