<svg width="34" height="38" viewBox="0 0 34 38" fill="none" xmlns="http://www.w3.org/2000/svg">
<g clip-path="url(#clip0)" filter="url(#filter0_d)">
<path d="M7.69264 10.8408V19.6087H1.29199V13.2978C1.29199 11.9411 2.31443 10.8408 3.57523 10.8408H4.7424H7.69264Z" fill="#BED8FB"/>
<path d="M32.1621 13.8184V33.1114C32.1621 34.7071 30.9606 36.0001 29.4784 36.0001H7.42694C6.16013 36.0001 5.09861 35.0555 4.81654 33.785L4.80576 32.1335L4.74316 22.2983V2.88872C4.74323 1.29298 5.94477 0 7.42694 0H19.321C20.3899 0 23.8517 3.17623 26.9117 6.52127C29.7039 9.57438 32.1621 12.768 32.1621 13.8184Z" fill="#DDEAFB"/>
<path d="M32.162 13.8183V20.8857C32.162 20.8778 32.1613 20.8698 32.1613 20.8611C31.9593 12.1893 25.3951 11.788 23.2485 9.47802L26.9116 6.52124C29.7037 9.57428 32.162 12.7679 32.162 13.8183Z" fill="#CBE2FF"/>
<path d="M19.3206 0H12.7529C12.7603 0 12.7678 0.000703125 12.7758 0.000703125C20.8344 0.218039 21.2073 7.28184 23.3539 9.59175L26.1016 5.64989C23.2644 2.6453 20.2966 0 19.3206 0Z" fill="#CBE2FF"/>
<path d="M32.162 13.8187V15.0405C32.162 12.4681 30.2235 10.3821 27.833 10.3821H25.1983C23.7161 10.3821 22.514 9.08859 22.514 7.49362V4.65841C22.514 2.08596 20.5756 0 18.1851 0H19.3205C21.365 0 23.3263 0.874195 24.772 2.42979L29.904 7.95234C31.3496 9.50801 32.162 11.6186 32.162 13.8187Z" fill="#BED8FB"/>
<path d="M22.9149 21.8605V28.3391C22.9149 30.4346 21.3364 32.1332 19.3891 32.1332H4.80527L4.74268 22.298V18.0664H19.3891C21.3364 18.0664 22.9149 19.7649 22.9149 21.8605Z" fill="#CBE2FF"/>
<path d="M25.1983 19.5487V26.0272C25.1983 28.1227 23.6198 29.8213 21.6725 29.8213H3.57566C3.5077 29.8213 3.44106 29.8184 3.37441 29.8112C2.20789 29.7026 1.29248 28.6487 1.29248 27.3643V13.2976C1.29248 13.9756 1.54829 14.5898 1.96156 15.0346C2.32975 15.4315 2.82385 15.6938 3.37441 15.7445C3.44106 15.7517 3.5077 15.7546 3.57566 15.7546H21.6725C23.6199 15.7545 25.1983 17.4531 25.1983 19.5487Z" fill="#B11F24"/>
<path d="M3.37441 15.7444V29.8112C2.20789 29.7026 1.29248 28.6487 1.29248 27.3643V13.2976C1.29248 13.9756 1.54829 14.5898 1.96156 15.0346C2.32975 15.4315 2.82379 15.6937 3.37441 15.7444Z" fill="#DA4A54"/>
<path d="M21.1198 19.867C21.3987 19.867 21.6246 19.6238 21.6246 19.3238C21.6246 19.0237 21.3986 18.7805 21.1198 18.7805H18.517C18.2382 18.7805 18.0122 19.0237 18.0122 19.3238V26.2343C18.0122 26.5344 18.2382 26.7776 18.517 26.7776C18.7958 26.7776 19.0218 26.5344 19.0218 26.2343V23.2569H20.913C21.1919 23.2569 21.4179 23.0137 21.4179 22.7137C21.4179 22.4136 21.1919 22.1704 20.913 22.1704H19.0218V19.8671H21.1198V19.867Z" fill="white"/>
<path d="M13.7163 18.7805H11.8975C11.7635 18.7805 11.6349 18.8379 11.5401 18.94C11.4454 19.0421 11.3923 19.1805 11.3926 19.3248V19.3308V19.331V26.1222C11.3926 26.1645 11.3975 26.2055 11.406 26.245C11.4086 26.386 11.4617 26.5206 11.5548 26.62C11.6494 26.721 11.7772 26.7777 11.9105 26.7777H11.9124C11.9672 26.7775 13.2622 26.7722 13.7783 26.7624C14.6742 26.7456 15.4719 26.3088 16.0245 25.5326C16.5339 24.8173 16.8144 23.8394 16.8144 22.7791C16.8145 20.3874 15.5695 18.7805 13.7163 18.7805ZM13.7608 25.676C13.4538 25.6818 12.8488 25.686 12.4136 25.6886C12.4112 24.8959 12.407 23.445 12.407 22.7715C12.407 22.208 12.4046 20.6883 12.4033 19.8671H13.7163C14.726 19.8671 15.8049 20.6321 15.8049 22.7791C15.8048 24.462 14.9643 25.6534 13.7608 25.676Z" fill="white"/>
<path d="M8.20169 18.7295H6.40039C6.26625 18.7295 6.13759 18.7869 6.04285 18.8892C5.94876 18.9908 5.89603 19.1282 5.89564 19.2716C5.89564 19.272 5.89551 19.2724 5.89551 19.2728V26.2344C5.89551 26.5344 6.12152 26.7776 6.40033 26.7776C6.6792 26.7776 6.90514 26.5344 6.90514 26.2344V23.7508C7.3241 23.7483 7.90517 23.7452 8.20162 23.7452C9.50633 23.7452 10.5678 22.6202 10.5678 21.2373C10.5678 19.8545 9.5064 18.7295 8.20169 18.7295ZM8.20169 22.6586C7.90687 22.6586 7.33384 22.6616 6.91488 22.6641C6.91259 22.2012 6.90972 21.561 6.90972 21.2373C6.90972 20.9642 6.90808 20.2975 6.90678 19.816H8.20175C8.93709 19.816 9.55828 20.4668 9.55828 21.2373C9.55828 22.0077 8.93702 22.6586 8.20169 22.6586Z" fill="white"/>
</g>
<defs>
<filter id="filter0_d" x="-1" y="0" width="35.4541" height="38" filterUnits="userSpaceOnUse" color-interpolation-filters="sRGB">
<feFlood flood-opacity="0" result="BackgroundImageFix"/>
<feColorMatrix in="SourceAlpha" type="matrix" values="0 0 0 0 0 0 0 0 0 0 0 0 0 0 0 0 0 0 127 0"/>
<feOffset dy="1"/>
<feGaussianBlur stdDeviation="0.5"/>
<feColorMatrix type="matrix" values="0 0 0 0 0 0 0 0 0 0 0 0 0 0 0 0 0 0 0.25 0"/>
<feBlend mode="normal" in2="BackgroundImageFix" result="effect1_dropShadow"/>
<feBlend mode="normal" in="SourceGraphic" in2="effect1_dropShadow" result="shape"/>
</filter>
<clipPath id="clip0">
<rect width="33.4541" height="36" fill="white"/>
</clipPath>
</defs>
</svg>
