<svg width="35" height="38" viewBox="0 0 35 38" fill="none" xmlns="http://www.w3.org/2000/svg">
<g clip-path="url(#clip0)" filter="url(#filter0_d)">
<path d="M30.0408 3.85575V32.1444H7.08454C6.75242 32.1444 6.48315 31.8547 6.48315 31.4973V2.07593H28.387C29.3004 2.07593 30.0408 2.87278 30.0408 3.85575Z" fill="#E8E8E8"/>
<path d="M21.4201 36.0001H3.55207C3.21995 36.0001 2.95068 35.7103 2.95068 35.3529V4.50311C2.95068 4.14571 3.21995 3.85596 3.55207 3.85596H27.7853C28.1174 3.85596 28.3867 4.14571 28.3867 4.50311V35.3529C28.3867 35.7103 28.1174 36.0001 27.7853 36.0001H25.2767H21.4201Z" fill="#FAFAFA"/>
<path d="M13.5003 31.8653H8.10288C7.79141 31.8653 7.53906 31.5938 7.53906 31.2586C7.53906 30.9234 7.79141 30.6519 8.10288 30.6519H13.5003C13.8118 30.6519 14.0641 30.9234 14.0641 31.2586C14.0641 31.5938 13.8118 31.8653 13.5003 31.8653Z" fill="#C1C1C1"/>
<path d="M20.4587 33.9606H8.10288C7.79141 33.9606 7.53906 33.6891 7.53906 33.3539C7.53906 33.0187 7.79141 32.7472 8.10288 32.7472H20.4586C20.7701 32.7472 21.0224 33.0187 21.0224 33.3539C21.0224 33.6891 20.7702 33.9606 20.4587 33.9606Z" fill="#C1C1C1"/>
<path d="M25.7465 7.36566V27.9593C25.7465 28.2801 25.5048 28.5401 25.2067 28.5401H6.03416C5.73608 28.5401 5.49438 28.28 5.49438 27.9593V7.36566C5.49438 7.00826 5.76365 6.71851 6.09577 6.71851H25.1451C25.4773 6.71844 25.7465 7.00819 25.7465 7.36566Z" fill="#B11F24"/>
<path d="M25.7465 19.195V27.9596C25.7465 28.2804 25.5048 28.5404 25.2067 28.5404H6.03416C5.73608 28.5404 5.49438 28.2804 5.49438 27.9596V20.444L10.959 14.5635C11.2695 14.2302 11.6905 14.0425 12.1288 14.0425C12.5678 14.0425 12.9881 14.2301 13.2986 14.5635L17.4649 19.0477L20.3675 15.9243C20.678 15.591 21.099 15.4032 21.5373 15.4032C21.9756 15.4032 22.3966 15.5909 22.7071 15.9243L25.7465 19.195Z" fill="#841519"/>
<path d="M25.7468 21.7126V27.9595C25.7468 28.2803 25.5051 28.5404 25.207 28.5404H10.9834L18.635 20.3065L21.1123 17.6407C21.3471 17.388 21.728 17.388 21.9628 17.6407L25.7468 21.7126Z" fill="#00ABE0"/>
<path d="M25.7468 27.9593C25.7468 28.2801 25.5051 28.5401 25.207 28.5401H10.9834L18.635 20.3063L25.7468 27.9593Z" fill="#099DD1"/>
<path d="M23.9467 28.5404H6.03416C5.73608 28.5404 5.49438 28.2803 5.49438 27.9596V22.9616L11.7035 16.28C11.9383 16.0273 12.3192 16.0273 12.554 16.28L23.9467 28.5404Z" fill="#72D54A"/>
<path d="M17.6266 14.946C19.1907 14.946 20.4587 13.5798 20.4587 11.8945C20.4587 10.2091 19.1907 8.8429 17.6266 8.8429C16.0624 8.8429 14.7944 10.2091 14.7944 11.8945C14.7944 13.5798 16.0624 14.946 17.6266 14.946Z" fill="#FFDC65"/>
</g>
<defs>
<filter id="filter0_d" x="-0.291992" y="0" width="35.4541" height="38" filterUnits="userSpaceOnUse" color-interpolation-filters="sRGB">
<feFlood flood-opacity="0" result="BackgroundImageFix"/>
<feColorMatrix in="SourceAlpha" type="matrix" values="0 0 0 0 0 0 0 0 0 0 0 0 0 0 0 0 0 0 127 0"/>
<feOffset dy="1"/>
<feGaussianBlur stdDeviation="0.5"/>
<feColorMatrix type="matrix" values="0 0 0 0 0 0 0 0 0 0 0 0 0 0 0 0 0 0 0.25 0"/>
<feBlend mode="normal" in2="BackgroundImageFix" result="effect1_dropShadow"/>
<feBlend mode="normal" in="SourceGraphic" in2="effect1_dropShadow" result="shape"/>
</filter>
<clipPath id="clip0">
<rect width="33.4541" height="36" fill="white" transform="translate(0.708008)"/>
</clipPath>
</defs>
</svg>
