<svg width="18" height="17" viewBox="0 0 18 17" fill="none" xmlns="http://www.w3.org/2000/svg">
<path d="M17.7188 13H6.75V11.5938C6.75 11.1262 6.37383 10.75 5.90625 10.75H4.21875C3.75117 10.75 3.375 11.1262 3.375 11.5938V13H0.28125C0.126562 13 0 13.1266 0 13.2812V13.8438C0 13.9984 0.126562 14.125 0.28125 14.125H3.375V15.5312C3.375 15.9988 3.75117 16.375 4.21875 16.375H5.90625C6.37383 16.375 6.75 15.9988 6.75 15.5312V14.125H17.7188C17.8734 14.125 18 13.9984 18 13.8438V13.2812C18 13.1266 17.8734 13 17.7188 13ZM5.625 15.25H4.5V11.875H5.625V15.25ZM17.7188 2.875H9V1.46875C9 1.00117 8.62383 0.625 8.15625 0.625H6.46875C6.00117 0.625 5.625 1.00117 5.625 1.46875V2.875H0.28125C0.126562 2.875 0 3.00156 0 3.15625V3.71875C0 3.87344 0.126562 4 0.28125 4H5.625V5.40625C5.625 5.87383 6.00117 6.25 6.46875 6.25H8.15625C8.62383 6.25 9 5.87383 9 5.40625V4H17.7188C17.8734 4 18 3.87344 18 3.71875V3.15625C18 3.00156 17.8734 2.875 17.7188 2.875ZM7.875 5.125H6.75V1.75H7.875V5.125ZM17.7188 7.9375H14.625V6.53125C14.625 6.06367 14.2488 5.6875 13.7812 5.6875H12.0938C11.6262 5.6875 11.25 6.06367 11.25 6.53125V7.9375H0.28125C0.126562 7.9375 0 8.06406 0 8.21875V8.78125C0 8.93594 0.126562 9.0625 0.28125 9.0625H11.25V10.4688C11.25 10.9363 11.6262 11.3125 12.0938 11.3125H13.7812C14.2488 11.3125 14.625 10.9363 14.625 10.4688V9.0625H17.7188C17.8734 9.0625 18 8.93594 18 8.78125V8.21875C18 8.06406 17.8734 7.9375 17.7188 7.9375ZM13.5 10.1875H12.375V6.8125H13.5V10.1875Z" fill="white"/>
</svg>
