<svg width="18" height="19" viewBox="0 0 18 19" fill="none" xmlns="http://www.w3.org/2000/svg">
<g clip-path="url(#clip0_7165_12967)">
<path fill-rule="evenodd" clip-rule="evenodd" d="M11.7458 12.247C11.8503 12.1424 11.9744 12.0594 12.1109 12.0028C12.2475 11.9462 12.3939 11.917 12.5418 11.917C12.6896 11.917 12.836 11.9462 12.9726 12.0028C13.1091 12.0594 13.2332 12.1424 13.3377 12.247L17.6689 16.5782C17.88 16.7892 17.9987 17.0753 17.9988 17.3738C17.9989 17.6722 17.8804 17.9584 17.6695 18.1695C17.4586 18.3806 17.1724 18.4993 16.874 18.4994C16.5755 18.4995 16.2893 18.381 16.0782 18.1701L11.7469 13.8388C11.6423 13.7344 11.5594 13.6103 11.5027 13.4737C11.4461 13.3371 11.417 13.1908 11.417 13.0429C11.417 12.8951 11.4461 12.7487 11.5027 12.6121C11.5594 12.4755 11.6423 12.3515 11.7469 12.247H11.7458Z" fill="white"/>
<path fill-rule="evenodd" clip-rule="evenodd" d="M7.3125 14C8.12505 14 8.92965 13.84 9.68035 13.529C10.4311 13.2181 11.1132 12.7623 11.6877 12.1877C12.2623 11.6132 12.7181 10.9311 13.029 10.1804C13.34 9.42965 13.5 8.62505 13.5 7.8125C13.5 6.99995 13.34 6.19535 13.029 5.44465C12.7181 4.69394 12.2623 4.01184 11.6877 3.43728C11.1132 2.86271 10.4311 2.40695 9.68035 2.096C8.92965 1.78504 8.12505 1.625 7.3125 1.625C5.67147 1.625 4.09766 2.2769 2.93728 3.43728C1.7769 4.59766 1.125 6.17147 1.125 7.8125C1.125 9.45353 1.7769 11.0273 2.93728 12.1877C4.09766 13.3481 5.67147 14 7.3125 14ZM14.625 7.8125C14.625 9.7519 13.8546 11.6119 12.4832 12.9832C11.1119 14.3546 9.2519 15.125 7.3125 15.125C5.3731 15.125 3.51314 14.3546 2.14178 12.9832C0.770422 11.6119 0 9.7519 0 7.8125C0 5.8731 0.770422 4.01314 2.14178 2.64178C3.51314 1.27042 5.3731 0.5 7.3125 0.5C9.2519 0.5 11.1119 1.27042 12.4832 2.64178C13.8546 4.01314 14.625 5.8731 14.625 7.8125Z" fill="white"/>
<mask id="mask0_7165_12967" style="mask-type:alpha" maskUnits="userSpaceOnUse" x="0" y="0" width="19" height="19">
<g clip-path="url(#clip1_7165_12967)">
<path d="M11.4931 7.67203V7.95328C11.4931 8.18531 11.3033 8.37516 11.0712 8.37516H8.1181V11.3283C8.1181 11.5603 7.92825 11.7502 7.69622 11.7502H7.41497C7.18294 11.7502 6.9931 11.5603 6.9931 11.3283V8.37516H4.03997C3.80794 8.37516 3.6181 8.18531 3.6181 7.95328V7.67203C3.6181 7.44 3.80794 7.25016 4.03997 7.25016H6.9931V4.29703C6.9931 4.065 7.18294 3.87516 7.41497 3.87516H7.69622C7.92825 3.87516 8.1181 4.065 8.1181 4.29703V7.25016H11.0712C11.3033 7.25016 11.4931 7.44 11.4931 7.67203ZM18.1201 17.9728L17.7228 18.3701C17.5576 18.5353 17.2904 18.5353 17.1251 18.3701L12.59 13.8349C12.5091 13.7541 12.4669 13.6486 12.4669 13.5361V13.2373C11.1697 14.4115 9.45052 15.1252 7.56263 15.1252C3.54778 15.1252 0.302861 11.9224 0.250126 7.90758C0.197392 3.7943 3.54427 0.447423 7.65755 0.500157C11.6724 0.552891 14.8751 3.79781 14.8751 7.81266C14.8751 9.70055 14.1615 11.4197 12.9872 12.717H13.2861C13.3986 12.717 13.504 12.7627 13.5849 12.84L18.1201 17.3752C18.2853 17.5404 18.2853 17.8076 18.1201 17.9728ZM13.7501 7.81266C13.7501 4.39195 10.9833 1.62516 7.56263 1.62516C4.14192 1.62516 1.37513 4.39195 1.37513 7.81266C1.37513 11.2334 4.14192 14.0002 7.56263 14.0002C10.9833 14.0002 13.7501 11.2334 13.7501 7.81266Z" fill="black"/>
</g>
</mask>
<g mask="url(#mask0_7165_12967)">
<path d="M3.75 4.5L7.75 2.5L9.75 3L11.25 4.5L12.25 6.5L12.75 8C12.5833 8.5 12.15 9.6 11.75 10L9.75 12C9.35 12.4 8.25 12.8333 7.75 13C6.91667 12.6667 5.25 11.9 5.25 11.5C5.25 11.1 4.25 10 3.75 9.5L2.75 7L3.75 4.5Z" fill="white"/>
</g>
</g>
<defs>
<clipPath id="clip0_7165_12967">
<rect width="18" height="18" fill="white" transform="translate(0 0.5)"/>
</clipPath>
<clipPath id="clip1_7165_12967">
<rect width="18" height="18" fill="white" transform="translate(0.25 0.5)"/>
</clipPath>
</defs>
</svg>
