<svg width="150" height="127" viewBox="0 0 150 127" fill="none" xmlns="http://www.w3.org/2000/svg">
<rect y="46.5901" width="60.5104" height="60.5104" rx="10" transform="rotate(-50.35 0 46.5901)" fill="white"/>
<path d="M89.8686 46.3784C89.8686 46.3784 85.9434 50.123 86.8051 51.0797C87.6668 52.0364 94.1771 51.0797 94.1771 51.0797C94.1771 51.0797 94.5588 52.8031 97.2405 52.7081C99.9222 52.613 105.379 52.7081 105.379 52.7081" fill="#CCF8FE"/>
<path fill-rule="evenodd" clip-rule="evenodd" d="M60.4014 47.3303L75.8423 62.0425C75.8423 62.0425 80.1507 84.5353 83.7417 89.018C87.3326 93.5008 105.571 107.137 105.571 107.137L118.57 121.557C120.985 124.236 124.895 124.968 128.115 123.343L140.354 117.168C144.96 114.844 146.195 108.833 142.878 104.882L136.448 97.2232C136.448 97.2232 139.381 69.4477 137.514 64.1952C136.155 60.373 120.136 46.3863 109.911 36.8284C105.874 33.0578 100.357 31.3004 94.8835 32.0416L65.3419 36.0348C64.7993 36.1085 64.3554 36.5034 64.219 37.0338C64.0827 37.5641 64.2812 38.1242 64.721 38.4504L67.9444 40.8359L94.0804 41.026L110.101 68.5654L94.4638 68.3136C94.4638 68.3136 77.892 38.9446 61.5308 43.0076C60.6297 43.2356 59.9239 43.9359 59.6889 44.8353C59.454 45.7346 59.727 46.6906 60.4014 47.3303Z" fill="#F7E3C6"/>
<path opacity="0.2" d="M122.014 60.3745C122.014 60.3745 105.937 36.7223 102.742 33.9503C100.353 31.8768 97.2405 31.8768 97.2405 31.8768" stroke="black" stroke-width="0.55"/>
<path opacity="0.2" d="M130.153 58.6195C130.153 58.6195 114.028 41.8386 107.809 35.7846C104.958 33.0078 102.39 32.5801 102.39 32.5801" stroke="black" stroke-width="0.55"/>
<path fill-rule="evenodd" clip-rule="evenodd" d="M136.004 52.255L61.1506 48.9286L51.6039 43.2389L61.9838 39.7335L136.413 43.044C137.636 43.0962 138.788 43.6332 139.615 44.5364C140.442 45.4395 140.875 46.6346 140.82 47.8578C140.766 49.0801 140.228 50.2307 139.324 51.0557C138.421 51.8806 137.226 52.3122 136.004 52.255Z" fill="black"/>
<path d="M79.7405 49.9075L62.1232 49.125L60.4014 47.4856C59.7282 46.8449 59.4562 45.889 59.6914 44.9898C59.9266 44.0907 60.6317 43.3903 61.5324 43.1613C67.8985 41.5805 74.2915 45.0637 79.7405 49.9075Z" fill="#F3D6C9"/>
<path fill-rule="evenodd" clip-rule="evenodd" d="M136.376 49.7539C137.579 49.7539 138.554 48.7788 138.554 47.5759C138.554 46.373 137.579 45.3979 136.376 45.3979C135.174 45.3979 134.198 46.373 134.198 47.5759C134.198 48.7788 135.174 49.7539 136.376 49.7539Z" fill="white"/>
<path opacity="0.2" fill-rule="evenodd" clip-rule="evenodd" d="M65.9074 35.9525C65.9074 35.9525 69.8278 39.8539 72.2133 35.1003L65.9074 35.9525Z" fill="black"/>
<path opacity="0.2" fill-rule="evenodd" clip-rule="evenodd" d="M61.7779 48.6372C61.7779 48.6372 61.1443 45.7448 65.22 46.1867C69.2956 46.6286 69.8627 49.8838 68.388 50.9846C67.4589 51.647 66.3278 51.9641 65.1899 51.8812" fill="black"/>
<path d="M29.3598 53.8992C29.3598 53.8992 32.8066 27.5272 37.8801 26.8571C42.9537 26.1871 43.4336 50.1229 45.6417 50.3621C47.8498 50.6013 51.6039 43.2389 51.6039 43.2389" stroke="black" stroke-width="3.0096"/>
</svg>
